# xmcd
#
# Track frame offsets:
#	150
#	15335
#	33976
#	47348
#	63735
#	82366
#	98513
#	109882
#	132207
#	151886
#
# Disc length: 2353 seconds
#
# Revision: 1
# Processed by: cddbd v1.5.2PL0 Copyright (c) Steve Scherf et al.
# Submitted via: audiograbber 1.83.01
#
DISCID=76092f0a
DTITLE=Chris Pickering - A Safer Place - CD1
DYEAR=2005
DGENRE=Country
TTITLE0=Chalk Outline
TTITLE1=Better Off
TTITLE2=All As It Should Be
TTITLE3=Goodbye Cruel World
TTITLE4=Rattle
TTITLE5=Deserve It
TTITLE6=Sleepyhead
TTITLE7=A Safer Place
TTITLE8=The Stars Will Fall Down Tonight
TTITLE9=Somersaults
EXTD=
EXTT0=
EXTT1=
EXTT2=
EXTT3=
EXTT4=
EXTT5=
EXTT6=
EXTT7=
EXTT8=
EXTT9=
PLAYORDER=
